<svg id="t7-logo" data-name="t7-logo" xmlns="http://www.w3.org/2000/svg" viewBox="0 0 117 50"><style>.wh{fill:#000000}</style><path class="wh" d="M15.7 28.5c.5.1 1 .2 1.4.4.5.1.9.3 1.4.4.4.1.9.3 1.2.6.4.2.7.5 1 .8s.5.7.6 1.1c0 .3.1.5 0 .7 0 .2-.1.4-.2.6-.1.2-.2.4-.4.5-.1.2-.3.3-.4.4-.6.5-1.2 1-2 1.4s-1.5.8-2.3 1.2l-1.2.6-1.2.6c-.3.1-.6.3-.9.4-.3.1-.7.2-1.2.2-.4 0-.5-.1-.6-.3 0-.1 0-.2.1-.3s.2-.2.3-.2c.1-.1.2-.2.3-.2.1-.1.2-.1.3-.1.2-.1.4-.3.6-.4l.6-.3c.4-.2.8-.4 1.2-.7.4-.2.8-.5 1.1-.7.4-.2.7-.5 1.1-.7s.7-.5 1.1-.7c.2-.1.4-.2.5-.3.2-.1.4-.3.5-.4.1-.1.2-.1.2-.2l.2-.2c.1-.1.1-.2.2-.3 0-.1.1-.2.1-.3 0-.2-.1-.3-.2-.4s-.2-.2-.4-.3c-.2-.1-.4-.3-.7-.4-.2-.1-.5-.2-.8-.3-.3-.1-.5-.2-.8-.2-.3-.1-.6-.1-.8-.2-.4-.1-.7-.2-1.1-.3-.4-.1-.7-.2-1.1-.3-.2-.1-.3-.1-.5-.2-.1-.1-.3-.2-.4-.3-.1-.1-.2-.2-.3-.4-.1-.2-.1-.3-.1-.5s0-.3.1-.5.1-.3.2-.5c.1-.1.2-.3.3-.4l.3-.3c.2-.2.5-.4.7-.6.3-.2.5-.4.8-.5.3-.2.6-.3.9-.5.3-.2.6-.3 1-.4.3-.1.7-.2 1.1-.3.4-.1.8-.2 1.2-.2h.4c.2 0 .3.1.4.1.1.1.2.1.3.2.1.1.1.2.1.3 0 .1-.1.2-.3.3-.1.1-.3.1-.5.1s-.4.1-.5.1c-.2 0-.3.1-.5.1l-.9.3c-.3.1-.6.2-.8.4-.6.3-1 .6-1.5.9-.4.3-.8.7-1 1.2.9.1 1.3.3 1.8.4M24.8 28.5c.1.1.3.1.4.3.1.1.2.2.2.4.1.2.1.3.1.5 0 .1 0 .3-.1.4 0 .1-.1.3-.2.4s-.1.3-.2.4-.2.2-.2.3l-.3.3c-.1.1-.2.2-.3.2-.1 0-.1.1-.2.1h-.2c-.1 0-.1 0-.2-.1 0 0-.1-.1-.1-.2v-.1l.1-.1s.1 0 .1-.1c0 0 .1 0 .1-.1l.3-.3c.1-.1.2-.2.3-.4l.1-.2c0-.1.1-.2.1-.2 0-.1.1-.2.1-.3v-.3c0-.1 0-.1-.1-.2 0 0-.1-.1-.2-.1h-.2c-.1 0-.1.1-.1.1l-.1.1-.1.1c-.1.1-.2.3-.2.4-.1.2-.1.3-.2.5s-.1.4-.1.6V31.8c0 .1 0 .2.1.3 0 .1.1.2.1.2.1.1.1.1.2.1h.3c.1 0 .2 0 .4-.1h.3c.1 0 .2.1.2.2v.1c0 .1 0 .1-.1.2l-.1.1-.1.1c-.1.1-.2.2-.4.3-.1.1-.3.2-.3.2 0 .4-.2.5-.3.5h-.4c-.1 0-.3-.1-.4-.1-.1-.1-.2-.1-.3-.2-.2-.2-.3-.4-.4-.6-.1-.2-.2-.5-.2-.8s0-.6.1-.9.1-.6.2-.8c.1-.2.2-.4.3-.7.1-.2.3-.4.4-.6s.3-.3.5-.5.4-.2.7-.3c.3-.1.4-.1.6 0M28.8 28.5c.1.1.3.1.4.3.1.1.2.2.2.4.1.2.1.3.1.5 0 .1 0 .3-.1.4 0 .1-.1.3-.2.4s-.1.3-.2.4-.2.2-.2.3l-.3.3c-.1.1-.2.2-.3.2-.1 0-.1.1-.2.1h-.2c-.1 0-.1 0-.2-.1 0 0-.1-.1-.1-.2v-.1l.1-.1s.1 0 .1-.1c0 0 .1 0 .1-.1l.3-.3c.1-.1.2-.2.3-.4l.1-.2c0-.1.1-.2.1-.2 0-.1.1-.2.1-.3v-.3c0-.1 0-.1-.1-.2 0 0-.1-.1-.2-.1h-.2c-.1 0-.1.1-.1.1l-.1.1-.1.1c-.1.1-.2.3-.3.4-.1.2-.1.3-.2.5s-.1.4-.1.6V31.8c0 .1 0 .2.1.3 0 .1.1.2.1.2.1.1.1.1.2.1h.3c.1 0 .3 0 .4-.1h.3c.1 0 .2.1.2.2v.1c0 .1 0 .1-.1.2l-.1.1-.1.1c-.1.1-.2.2-.4.3-.2.1-.3.2-.3.2-.1.1-.3.1-.4.1h-.4c-.1 0-.3-.1-.4-.1-.1-.1-.2-.1-.3-.2-.2-.2-.3-.4-.4-.6-.1-.2-.2-.5-.2-.8s0-.6.1-.9.2-.6.3-.8c.1-.2.2-.4.3-.7.1-.2.3-.4.4-.6s.3-.3.5-.5.5-.2.8-.3c.3.3.4.3.6.4M36.3 39.7c-.1.2-.1.4-.1.7.2-.1.4-.1.5-.3.2-.1.3-.3.4-.4.4-.4.7-1 .9-1.6s.4-1.2.5-1.9c-.4.4-.8.8-1.1 1.3-.4.5-.6 1-.9 1.6 0 .2-.1.4-.2.6zm.6-6.8c.3-.3.6-.7.9-1 .2-.3.4-.5.6-.8l.6-.9c0-.1.1-.2.2-.3.1-.1.2-.2.3-.2s.2 0 .2.1.1.2.1.3v.6c0 .6-.1 1.2-.1 1.9s0 1.3-.1 1.9c.2-.1.3-.2.5-.4.2-.1.4-.3.6-.4.1-.1.2-.1.3-.2.1-.1.2-.1.3-.2 0 0 .1-.1.2-.1.1-.1.2-.1.3-.2.1-.1.2-.1.3-.2.1 0 .2-.1.3-.1h.2v.2s0 .1-.1.1-.1.1-.2.1-.2.1-.2.1c-.1 0-.1.1-.2.1-.3.2-.6.4-.8.6-.2.2-.4.4-.6.5s-.5.5-.6.6l-.5.5c-.1.5-.2 1.1-.3 1.6s-.3 1-.4 1.5c-.2.5-.4.9-.7 1.3-.3.4-.6.7-1 1-.1.1-.2.1-.3.2-.1.1-.3.1-.4.1-.2 0-.4-.1-.4-.2-.1-.1-.2-.3-.2-.4v-.5c0-.2.1-.4.1-.5.1-.4.3-.8.5-1.2s.4-.7.7-1.1c.2-.3.5-.6.8-.9.3-.3.6-.6.9-.8 0 0 .1-.1.2-.1s.1-.1.1-.1v-.2-.3c.1-.6.1-1.2.1-1.8s.1-1.2.1-1.8c-.2.3-.3.5-.5.8s-.3.5-.5.8-.3.5-.5.8-.4.5-.5.8c-.1.2-.2.3-.4.5-.1.2-.2.3-.4.5-.1.1-.2.2-.3.2-.1.1-.3.1-.4.1h-.4c-.1 0-.3-.1-.4-.2-.1-.1-.2-.3-.3-.4-.1-.2-.1-.4-.1-.6v-.7c0-.2 0-.5.1-.7l.3-1.5c.1-.5.2-.9.4-1.4.1-.4.3-.9.5-1.3s.3-.9.5-1.3c0-.1.1-.2.1-.3 0-.1.1-.2.2-.3.1-.1.1-.2.2-.3.1-.1.2-.1.3-.1.2 0 .4 0 .5.2.1.1.2.3.2.5 0 .1-.1.2-.1.4-.1.1-.1.3-.2.4-.2.4-.3.9-.5 1.3-.2.5-.3.9-.4 1.4l-.3 1.5c-.3.3-.3.8-.3 1.4l.9-.9z"/><path class="wh" d="M44.1 30.5c-.1.3-.3.7-.3 1-.1.3-.1.7-.2 1.1 0 .4 0 .7.1 1.1.2-.2.5-.4.6-.6.2-.2.4-.5.5-.7.2-.2.3-.5.4-.8.1-.3.2-.6.2-1-.2-.1-.3-.2-.5-.3-.1-.1-.3-.3-.3-.5-.2.1-.4.3-.5.7zm3-.1c.3.1.6.2.9.2h1c.1 0 .2 0 .2.1v.1s-.1.1-.2.1h-.4c-.2 0-.4.1-.6.1h-1.2c-.2 0-.4-.1-.5-.1 0 .3-.1.5-.1.8-.1.2-.1.4-.2.7l-.3.6-.3.6c-.1.2-.2.4-.3.5-.1.2-.2.4-.4.5l-.3.3c-.1.1-.3.2-.4.3-.2.1-.3.1-.5.1s-.4 0-.5-.1c-.2-.1-.4-.3-.5-.5s-.2-.5-.3-.8-.1-.7 0-1c0-.3.1-.7.2-1 .1-.3.1-.6.2-.8.1-.3.2-.6.3-.8.1-.3.2-.5.4-.7.1-.2.3-.4.5-.6.1-.1.2-.1.3-.2s.2-.1.3-.1h.4c.1 0 .2.1.3.2.2-.1.4-.1.5-.1.2 0 .3.1.4.3.1.1.2.3.3.5s.1.4.2.5c.1 0 .3.1.6.3z"/><path class="wh" d="M49.6 34s0-.1 0 0c.5-.5.9-1 1.4-1.5.4-.5.8-1 1.2-1.6.1-.1.1-.2.2-.3.1-.1.1-.2.2-.3.1-.1.1-.2.2-.3.1-.1.2-.2.3-.2s.2 0 .3.1.1.2.1.3c0 .1.1.3.1.4v.4c0 .3.1.6.1.9.1.3.1.6.2.9.1.3.1.6.2.9.1.3.1.6.2.9V35.2l-.1.1c-.1 0-.1 0-.2-.1 0-.1-.1-.2-.1-.3s-.1-.2-.1-.3 0-.2-.1-.3c-.1-.3-.1-.5-.2-.8-.1-.3-.2-.5-.2-.8-.1-.3-.1-.6-.2-.8 0-.3-.1-.6-.1-.9l-1.2 2.1-1.2 2.1c-.1.2-.3.4-.5.6-.2.2-.4.4-.6.5-.2.1-.4.1-.6.1-.2 0-.3-.1-.5-.2-.1-.1-.2-.3-.3-.4-.1-.2-.1-.4-.1-.6v-.8c0-.3.1-.5.1-.8.1-.5.2-.9.4-1.4s.3-.9.4-1.3c.1-.2.2-.5.2-.7l.3-.6c0-.1.1-.1.1-.2l.2-.2c.1 0 .2-.1.3-.1s.2 0 .3.1.2.2.2.4.1.4 0 .6c0 .2-.1.3-.1.5-.1.2-.1.3-.2.5-.1.5-.3 1-.4 1.5-.1.3-.2.8-.2 1.3-.1 0 0 0 0 0M60.9 30.5c-.1.3-.3.7-.3 1-.1.3-.1.7-.2 1.1 0 .4 0 .7.1 1.1.2-.2.5-.4.6-.6.2-.2.4-.5.5-.7.2-.2.3-.5.4-.8.1-.3.2-.6.2-1-.2-.1-.3-.2-.5-.3-.1-.1-.3-.3-.3-.5-.2.1-.4.3-.5.7zm3-.1c.3.1.6.2.9.2H65.7c.1 0 .2 0 .2.1v.1s-.1.1-.2.1h-.4c-.2 0-.4.1-.6.1h-1.2c-.2 0-.4-.1-.5-.1 0 .3-.1.5-.1.8-.1.2-.1.4-.2.7l-.3.6-.3.6c-.1.2-.2.4-.3.5-.1.2-.2.4-.4.5l-.3.3c-.1.1-.3.2-.4.3-.2.1-.3.1-.5.1s-.4 0-.5-.1c-.2-.1-.4-.3-.5-.5s-.2-.5-.3-.8-.1-.7 0-1c0-.3.1-.7.2-1 .1-.3.1-.6.2-.8.1-.3.2-.6.3-.8.1-.3.2-.5.4-.7.1-.2.3-.4.5-.6.1-.1.2-.1.3-.2s.2-.1.3-.1h.4c.1 0 .2.1.3.2.2-.1.4-.1.5-.1.2 0 .3.1.4.3.1.1.2.3.3.5s.1.4.2.5c.2 0 .4.1.7.3z"/><path class="wh" d="M66.4 34s0-.1 0 0c.5-.5.9-1 1.4-1.5.4-.5.8-1 1.2-1.6.1-.1.1-.2.2-.3.1-.1.1-.2.2-.3.1-.1.1-.2.2-.3.1-.1.2-.2.3-.2.1 0 .2 0 .3.1.1.1.1.2.1.3 0 .1.1.3.1.4v.4c0 .3.1.6.1.9.1.3.1.6.2.9s.1.6.2.9c.1.3.1.6.2.9V35.2l-.1.1c-.1 0-.1 0-.2-.1 0-.1-.1-.2-.1-.3s-.1-.2-.1-.3 0-.2-.1-.3c-.1-.3-.1-.5-.2-.8s-.2-.5-.2-.8c-.1-.3-.1-.6-.2-.8 0-.3-.1-.6-.1-.9l-1.2 2.1-1.2 2.1c-.1.2-.3.4-.5.6-.2.2-.4.4-.6.5s-.4.1-.6.1-.3-.1-.5-.2c-.1-.1-.2-.3-.3-.4-.1-.2-.1-.4-.1-.6v-.8c0-.3.1-.5.1-.8.1-.5.2-.9.4-1.4.2-.5.3-.9.4-1.3.1-.2.1-.5.2-.7l.3-.6c0-.1.1-.1.1-.2l.2-.2c.1 0 .2-.1.3-.1s.2 0 .3.1c.1.1.2.2.2.4s.1.4 0 .6c0 .2-.1.3-.1.5-.1.2-.1.3-.2.5-.1.5-.3 1-.4 1.5-.1.3-.2.8-.2 1.3M75.6 25.4c.1 0 .3 0 .5-.1h.5c.1 0 .3 0 .4.1h.4c.2 0 .3 0 .4.1.1 0 .3.1.4.2s.1.2.1.3c0 .1 0 .2-.1.3-.1.1-.2.1-.3.1-.1 0-.2.1-.3.1-.1 0-.3 0-.4.1-.1 0-.3.1-.4.1s-.3.1-.4.1c-.3 0-.6.1-.9.1s-.6 0-.9.1c-.2.6-.3 1.2-.5 1.8-.1.6-.2 1.3-.3 1.9-.1.7-.2 1.4-.2 2.1-.1.7-.1 1.4-.1 2.1V38.3c0 .1 0 .2-.1.3 0 .1-.1.2-.1.3-.1.1-.1.2-.2.2h-.4c-.1 0-.2-.1-.2-.2-.1-.1-.1-.2-.2-.3 0-.1-.1-.2-.1-.3s-.1-.2-.1-.3c-.1 0-.1-.3-.1-.6v-.8V34c.1-.8.1-1.6.2-2.4.1-.8.3-1.5.4-2.2l.6-2.1c-.1 0-.3 0-.4.1-.1 0-.3.1-.4.1s-.3.1-.4.1h-.4c-.1 0-.2-.1-.3-.1-.3-.1-.3-.2-.3-.4 0-.1 0-.2.1-.3.1-.1.1-.2.2-.2.1-.1.2-.2.4-.2.1-.1.3-.1.5-.2.2 0 .3-.1.5-.1s.3-.1.5-.1H73.9l.1-.1c0-.1.1-.1.1-.1.1-.1.1-.2.2-.2.1-.1.2-.1.3-.1.2 0 .3 0 .4.1s.2.2.2.3c.1-.4.2-.4.4-.5M86.1 25.3c.2 0 .3 0 .5-.1h.5c.1 0 .3 0 .5.1h.4c.2 0 .3 0 .5.1.1 0 .3.1.4.2s.1.2.1.3c0 .1 0 .2-.1.3-.1.1-.2.1-.3.1-.1 0-.2.1-.4.1-.1 0-.3 0-.4.1-.1 0-.3.1-.4.1s-.3.1-.4.1c-.3 0-.6.1-.9.1s-.6 0-.9.1c-.2.6-.4 1.2-.5 1.8-.1.6-.3 1.3-.3 2-.1.7-.2 1.4-.2 2.1-.1.7-.1 1.4-.1 2.2V38.4c0 .1 0 .2-.1.3 0 .1-.1.2-.1.3-.1.1-.1.2-.2.2h-.4c-.1 0-.2-.1-.3-.2-.1-.1-.1-.2-.2-.3 0-.1-.1-.2-.1-.3s-.1-.2-.1-.3c-.1-.2-.1-.5-.1-.8v-.8-2.6c.1-.8.1-1.6.3-2.4.1-.8.3-1.5.4-2.3l.6-2.1c-.1 0-.3 0-.4.1-.1 0-.3.1-.5.1-.1 0-.3.1-.4.1h-.4c-.1 0-.3-.1-.3-.1-.1-.1-.1-.2-.2-.3 0-.1 0-.2.1-.3.1-.1.1-.2.2-.2.1-.1.2-.2.4-.2.1-.1.3-.1.5-.2s.3-.1.5-.1.3-.1.5-.1H84.5l.1-.1c0-.1.1-.1.1-.1.1-.1.1-.2.2-.2.1-.1.2-.1.3-.1.2 0 .3 0 .4.1s.2.2.2.3c0-.4.1-.4.3-.5M91.3 31.4c-.1.1-.2.2-.2.3-.2.3-.5.6-.7.9s-.4.6-.6 1c-.1.2-.2.4-.4.7-.1.3-.2.6-.4.9-.1.3-.2.7-.3 1-.1.3-.1.7-.2.9v.4c0 .1-.1.3-.2.4-.1.1-.2.2-.3.2-.1.1-.3.1-.4.1s-.2 0-.3-.1c-.1-.1-.2-.1-.3-.2-.1-.1-.1-.2-.1-.3s-.1-.3-.1-.5v-.6c.1-1.1.2-2.1.3-3.1.1-1 .3-1.9.5-2.8s.5-1.8.8-2.6c.3-.8.6-1.6 1-2.4l.6-1.2.6-1.2c.1-.1.2-.3.2-.4l.3-.3c.1-.1.2-.1.3-.1.1 0 .2-.1.3-.1.1 0 .2 0 .3.1.1 0 .2.1.2.2s.1.2 0 .3c0 .1-.1.2-.1.3 0 .1-.1.2-.2.3.1-.1.1 0 .1.1-.2.3-.3.6-.4.9s-.3.7-.4 1c-.4.9-.7 1.8-1 2.7-.3.9-.6 1.9-.8 2.9-.1.2-.1.5-.2.7 0 .2-.1.4-.1.6s-.1.4-.1.5 0 .2-.1.3c.3-.4.6-.8 1-1.2.3-.4.7-.8 1.1-1.1l.2-.2c.1-.1.2-.1.2-.2.1-.1.2-.1.3-.1h.3c.1 0 .1.1.2.2 0 .1.1.2.1.3v.6c0 .2-.1.4-.1.6 0 .2-.1.4-.1.6V34.3c0 .1.1.2.1.3s.1.2.1.2c.1.1.1.1.2.1s.2 0 .3-.1c.1 0 .2-.1.2-.2.1-.1.2-.1.2-.2l.2-.2c.2-.2.3-.4.4-.5.1-.2.2-.4.4-.5l.3-.6c.1-.2.2-.4.3-.7 0 0 0-.1.1-.2 0-.1.1-.2.1-.3 0-.1.1-.2.1-.3 0-.1.1-.2.1-.2s0-.1.1-.1c0 0 .1-.1.1 0v.2c0 .1-.1.2-.1.4-.1.1-.1.3-.2.4s-.1.2-.1.2c-.2.5-.5 1-.7 1.5l-.6.9c-.2.3-.4.6-.7.7-.1.1-.3.1-.4.2h-.5c-.3-.1-.5-.3-.7-.7-.1-.4-.2-.8-.2-1.2s.1-.8.1-1.2.2-.8.2-1.2c0 .2-.1.3-.2.4"/><path class="wh" d="M97 28.5c.1.1.3.1.4.3.1.1.2.2.2.4.1.2.1.3.1.5 0 .1 0 .3-.1.4 0 .1-.1.3-.2.4s-.1.3-.2.4-.2.2-.2.3l-.3.3c-.1.1-.2.2-.3.2-.1 0-.1.1-.2.1H96c-.1 0-.1 0-.2-.1 0 0-.1-.1-.1-.2v-.1l.1-.1s.1 0 .1-.1c0 0 .1 0 .1-.1l.3-.3c.1-.1.2-.2.3-.4l.1-.2c0-.1.1-.2.1-.2 0-.1.1-.2.1-.3v-.3c0-.1 0-.1-.1-.2 0 0-.1-.1-.2-.1h-.2c-.1 0-.1.1-.1.1l-.1.1-.1.1c-.1.1-.2.3-.2.4-.1.2-.1.3-.2.5s-.1.4-.1.6V31.8c0 .1 0 .2.1.3 0 .1.1.2.1.2.1.1.1.1.2.1h.3c.1 0 .2 0 .4-.1h.3c.1 0 .2.1.2.2v.1c0 .1 0 .1-.1.2l-.1.1-.1.1c-.1.1-.2.2-.4.3-.1.1-.3.2-.3.2 0 .4-.1.5-.2.5h-.4c-.1 0-.3-.1-.4-.1-.1-.1-.2-.1-.3-.2-.2-.2-.3-.4-.4-.6-.1-.2-.2-.5-.2-.8s0-.6.1-.9.1-.6.2-.8c.1-.2.2-.4.3-.7.1-.2.3-.4.4-.6s.3-.3.5-.5.4-.2.7-.3c.2-.1.4-.1.5 0M100.4 30.4l.5-.5c.2-.1.4-.3.6-.4s.5-.2.7-.3c.1 0 .1 0 .3-.1h.6c.1 0 .1.1.1.2s-.1.1-.2.2c-.1 0-.2 0-.2.1-.2.1-.5.2-.6.4-.2.1-.4.3-.5.5-.3.3-.7.6-1 1s-.6.8-.7 1.3c0 .1-.1.2-.1.4 0 .1 0 .3-.1.5V34.6c0 .1 0 .2-.1.2 0 .1-.1.2-.2.3s-.2.2-.3.2c-.1 0-.2.1-.4.1-.1 0-.3-.1-.4-.2-.1-.1-.2-.3-.3-.4 0-.2-.1-.4 0-.7v-.2c0-.3.1-.5.1-.8v-.8c.1-1.2.4-2.4.7-3.6 0-.1.1-.2.1-.3 0-.1.1-.2.1-.3s.1-.2.2-.2c.1-.1.2-.1.3-.1.2 0 .3 0 .4.2.1.1.2.3.2.4v.3c0 .1-.1.2-.1.3-.1.3-.1.7-.2 1s-.1.7-.2 1.1l.7-.7M105.6 28.5c.1.1.3.1.4.3.1.1.2.2.2.4.1.1.1.3.1.5 0 .1 0 .3-.1.4 0 .1-.1.3-.2.4s-.1.2-.2.4c-.1.1-.2.2-.2.3l-.3.3c-.1.1-.2.2-.3.2-.1 0-.1.1-.2.1h-.2s-.1 0-.2-.1c0 0-.1-.1-.1-.2v-.1l.1-.1s.1 0 .1-.1.1 0 .1-.1l.3-.3c.1-.1.2-.2.3-.4l.1-.2c0-.1.1-.1.1-.2s.1-.2.1-.3v-.3c0-.1 0-.1-.1-.2 0 0-.1-.1-.2-.1h-.2c-.1 0-.1.1-.1.1l-.1.1-.1.1c-.1.1-.2.3-.3.4-.1.2-.1.3-.2.5s-.1.4-.1.6V31.8c0 .1 0 .2.1.3 0 .1.1.2.1.2.1.1.1.1.2.1h.3c.1 0 .3 0 .4-.1h.3c.1 0 .2.1.2.2v.1c0 .1 0 .1-.1.2l-.1.1-.1.1c-.1.1-.2.2-.4.3-.2.1-.3.2-.3.2-.1.1-.3.1-.4.1h-.4c-.1 0-.3-.1-.4-.1-.1-.1-.2-.1-.3-.2-.2-.2-.3-.4-.4-.6-.1-.2-.2-.5-.2-.8s0-.6.1-.9.2-.6.3-.8c.1-.2.2-.4.3-.7.1-.2.3-.4.4-.6s.3-.3.5-.5.5-.2.8-.3c.3.3.5.3.6.4M97.6 11.5c0 2.1-1.8 2.8-3.7 2.8-1.9 0-3.7-.7-3.7-2.8s1.8-2.8 3.7-2.8 3.7.7 3.7 2.8m4 0c0-3.9-2.8-5.9-7.7-5.9-5 0-7.7 2.1-7.7 5.9s2.8 5.9 7.7 5.9 7.7-2 7.7-5.9m-20.2 1.9c-.7.4-1.5.7-2.3.8l-.7.1c-2 0-3.6-1-3.6-2.8s1.6-2.8 3.6-2.8c.2 0 .5 0 .7.1.8.1 1.6.5 2.3.9v3.7zm4 3.6V1.8c-.9.6-1.8 1.1-2.8 1.5-.6.2-1.3.5-1.3.5v2.8c-1.3-.6-2.7-.9-4.1-.8-4.1 0-6.4 2.5-6.4 5.7 0 3.8 2.5 5.9 6.5 5.9 1.5 0 2.9-.4 4.2-1.1v.7h3.9zM66 10.3h-6.4c.2-1.2 1.2-2.2 3.2-2.2s2.9 1 3.2 2.2m4.1 2.2v-.3c0-4.6-2.7-6.6-7.4-6.6-4.6 0-7.4 2-7.4 5.9 0 4.1 3 6.2 7.9 6.2 2.2 0 4.3-.5 6.3-1.5l-1.2-2.7c-1.5.8-3.2 1.2-4.9 1.2-2.2 0-3.7-.7-3.9-2.2h10.6zm-19.3-1c0 1.8-1.6 2.8-3.6 2.8h-.1c-1-.1-2-.2-3-.5V9.7s.7-.6 2.3-.9c.3 0 .5-.1.8-.1 2 0 3.6 1 3.6 2.8m3.9.2c0-3.8-2.5-5.9-6.5-5.9-1.8 0-2.9.3-4.2 1.1V6h-4v15s1.2-.5 2.5-1c.5-.1 1.1-.3 1.6-.4v-3.1c1.3.6 2.7.8 4.1.8 4.1.1 6.5-2.5 6.5-5.6M36.5 9.4c.8-.2 1.7-.2 2.6-.1V5.8c-.5-.1-1-.1-1.5-.1-1.9 0-3.7.5-4.5 1.6V6h-4v11h4.1v-3.6c-.1-2.1 1-3.5 3.3-4m-12.2 2.1c0 2.1-1.8 2.8-3.7 2.8s-3.7-.7-3.7-2.8 1.8-2.8 3.7-2.8 3.7.7 3.7 2.8m4 0c0-3.9-2.8-5.9-7.7-5.9-4.3 0-7.7 2.1-7.7 5.9s2.8 5.9 7.7 5.9 7.7-2 7.7-5.9"/><path class="wh" d="M.6 1.8l1.2 3.3h4.3V17h4.6V5.1h4.4l1.1-3.3H.6z"/><path d="M107.7 11.4c-1.3 1.7-3.9 4.7-5.7 8.6h4.8c1.6-3.6 3.4-6.4 6.8-10.6l.1-.1-5.1.9c-.4.5-.7 1-.9 1.2m8.7-5.3h-15.3l2.1 3H114c.8-1.1 2.5-3 2.4-3" fill="#e20512"/></svg>